# xmcd
#
# Track frame offsets: 
#        150
#        16965
#        32960
#        51335
#        71512
#        90087
#        108762
#        128740
#        145512
#        164822
#        181480
#
# Disc length: 2698 seconds
#
# Revision: 1
# Processed by: cddbd v1.5.1PL0 Copyright (c) Steve Scherf et al.
# Submitted via: ExactAudioCopy v0.95a5
#
DISCID=8d0a880b
DTITLE=Huff, David - Proclaim
DYEAR=2004
DGENRE=CCM
TTITLE0=I've come to worship
TTITLE1=Just like Jesus
TTITLE2=Near you
TTITLE3=Holy rain
TTITLE4=When mercy found me
TTITLE5=My song of praise
TTITLE6=Glory hallelujah
TTITLE7=Shout it out
TTITLE8=Run to his mercy
TTITLE9=With a prayer
TTITLE10=Blue eyes like Janey's
EXTD=YEAR: 2004
EXTT0=
EXTT1=
EXTT2=
EXTT3=
EXTT4=
EXTT5=
EXTT6=
EXTT7=
EXTT8=
EXTT9=
EXTT10=
PLAYORDER=
